<?xml version="1.0" standalone="no"?>
<!DOCTYPE svg PUBLIC "-//W3C//DTD SVG 20010904//EN"
 "http://www.w3.org/TR/2001/REC-SVG-20010904/DTD/svg10.dtd">
<svg version="1.0" xmlns="http://www.w3.org/2000/svg"
 width="1254.000000pt" height="1254.000000pt" viewBox="0 0 1254.000000 1254.000000"
 preserveAspectRatio="xMidYMid meet">
<metadata>
Created by potrace 1.16, written by Peter Selinger 2001-2019
</metadata>
<g transform="translate(0.000000,1254.000000) scale(0.100000,-0.100000)"
fill="#D0121B" stroke="none">
<path d="M6032 9748 c-229 -538 -325 -765 -522 -1238 -56 -135 -208 -495 -338
-800 -129 -305 -235 -559 -235 -565 0 -13 49 -121 263 -580 95 -203 187 -401
205 -440 32 -69 60 -127 170 -360 40 -86 59 -116 65 -105 4 8 76 254 160 545
84 292 189 658 234 815 46 157 116 403 157 547 41 145 76 263 79 263 3 0 38
-118 79 -263 41 -144 111 -390 157 -547 45 -157 150 -523 234 -815 84 -291
156 -537 160 -545 9 -15 44 54 235 465 18 39 110 237 205 440 214 459 263 567
263 580 0 6 -106 260 -235 565 -130 305 -282 665 -338 800 -328 787 -752 1780
-760 1780 -3 0 -110 -244 -238 -542z"/>
<path d="M1572 9004 c3 -5 135 -400 292 -879 596 -1805 695 -2107 723 -2197 9
-32 20 -58 25 -58 4 0 43 53 86 118 43 64 129 191 191 282 61 90 111 169 111
175 0 6 -30 92 -66 191 l-66 179 -5 140 -6 140 61 80 c33 44 93 115 133 158
l74 79 102 -22 c178 -37 189 -43 322 -168 l121 -113 137 -35 c136 -35 387
-107 493 -142 51 -18 59 -24 117 -108 68 -98 71 -101 291 -383 124 -159 151
-201 148 -221 -3 -14 -8 -59 -12 -101 l-6 -76 176 -281 176 -280 -96 -208
c-53 -115 -102 -216 -109 -224 -8 -8 -27 -52 -44 -98 -17 -46 -40 -104 -51
-131 l-21 -48 -97 -16 c-201 -33 -162 -44 -308 84 l-129 112 0 50 0 49 -89 45
-88 44 6 -38 c3 -21 8 -63 12 -93 6 -49 14 -64 72 -135 145 -178 423 -525 512
-640 80 -103 117 -140 235 -235 143 -115 422 -345 666 -547 124 -103 143 -123
211 -225 41 -62 146 -220 233 -350 87 -131 161 -238 165 -238 4 0 78 107 165
238 87 130 192 288 233 350 68 102 87 122 211 225 244 202 523 432 666 547
118 95 155 132 235 235 89 115 367 462 512 640 58 71 66 86 72 135 4 30 9 72
12 93 l6 38 -88 -44 -89 -45 0 -49 0 -50 -129 -112 c-146 -128 -107 -117 -308
-84 l-97 16 -21 48 c-11 27 -34 85 -51 131 -17 46 -36 90 -44 98 -7 8 -56 109
-109 224 l-96 208 176 280 176 281 -6 76 c-4 42 -9 87 -12 101 -3 20 24 62
148 221 220 282 223 285 291 383 58 84 66 90 117 108 106 35 357 107 493 142
l137 35 121 113 c133 125 144 131 322 168 l102 22 74 -79 c40 -43 100 -114
133 -158 l61 -80 -6 -140 -5 -140 -66 -179 c-36 -99 -66 -185 -66 -191 0 -6
50 -85 111 -175 62 -91 148 -218 191 -282 43 -65 82 -118 86 -118 5 0 16 26
25 58 10 31 53 165 97 297 214 653 600 1825 750 2275 92 278 166 507 164 509
-2 2 -45 -21 -96 -51 -51 -30 -169 -100 -263 -155 -1188 -701 -1540 -911
-2090 -1253 -126 -78 -332 -205 -457 -283 -126 -77 -228 -143 -228 -148 0 -4
-24 -61 -54 -126 -29 -65 -104 -230 -166 -368 -62 -137 -149 -329 -192 -425
-153 -335 -401 -887 -553 -1230 -84 -190 -233 -523 -330 -740 -97 -217 -196
-437 -218 -487 -23 -51 -44 -93 -47 -93 -3 0 -24 42 -47 93 -22 50 -121 270
-218 487 -97 217 -246 550 -330 740 -152 343 -400 895 -553 1230 -43 96 -130
288 -192 425 -62 138 -137 303 -166 368 -30 65 -54 122 -54 126 0 5 -102 71
-227 148 -126 77 -320 198 -433 268 -518 322 -1179 719 -1910 1147 -80 47
-234 138 -343 202 -201 119 -235 137 -225 120z"/>
<path d="M3113 7256 c-22 -20 -66 -73 -97 -118 l-56 -83 0 -96 c0 -94 2 -101
71 -295 86 -241 83 -236 114 -229 14 3 36 7 50 10 17 4 51 42 115 130 49 68
90 127 90 129 0 2 -36 34 -80 71 -45 37 -79 69 -76 72 2 2 46 -17 97 -44 52
-26 97 -48 100 -48 3 0 47 48 98 107 l93 108 -19 23 c-10 13 -63 74 -118 135
-95 108 -102 113 -165 133 -36 11 -90 23 -120 26 -52 5 -57 3 -97 -31z"/>
<path d="M9295 7285 c-5 -2 -42 -12 -80 -24 -70 -20 -72 -22 -170 -133 -55
-61 -108 -122 -118 -135 l-19 -23 93 -108 c51 -59 95 -107 98 -107 3 0 48 22
100 48 51 27 95 46 97 44 3 -3 -31 -35 -76 -72 -44 -37 -80 -69 -80 -71 0 -2
41 -61 90 -129 64 -88 98 -126 115 -130 14 -3 36 -7 50 -10 31 -7 28 -12 114
229 69 194 71 201 71 295 l0 96 -56 83 c-75 110 -125 152 -178 151 -23 0 -45
-2 -51 -4z"/>
<path d="M3715 6967 c7 -35 3 -41 -212 -293 -120 -141 -225 -264 -233 -274
-11 -13 -37 -20 -92 -25 l-77 -7 -84 -131 c-47 -73 -151 -235 -231 -360 l-146
-229 244 -976 c135 -537 248 -976 253 -975 4 0 11 18 15 40 4 21 23 121 42
223 73 386 197 1043 236 1253 l41 219 -61 271 c-34 150 -70 309 -81 355 -21
90 -24 125 -7 77 6 -16 57 -145 113 -285 56 -140 110 -278 119 -306 18 -56 11
-51 206 -134 36 -15 139 -60 228 -99 90 -39 168 -71 173 -71 5 0 9 19 9 43 l1
42 25 -30 c13 -16 44 -58 67 -92 37 -55 49 -64 107 -87 130 -51 128 -51 295 2
l150 48 17 64 16 65 -85 79 -85 79 -129 261 -129 261 -48 7 c-26 3 -82 7 -124
7 l-76 1 -111 118 -111 117 83 3 c45 1 140 -1 210 -5 l129 -8 47 -125 c40
-109 123 -274 243 -485 l34 -60 149 -8 c83 -4 164 -6 182 -5 l32 3 -63 100
c-34 55 -106 168 -160 250 -88 136 -97 153 -92 185 4 19 9 63 13 97 l6 62 -74
93 c-94 117 -252 302 -293 342 -17 17 -62 67 -99 111 l-67 81 -242 68 c-134
38 -251 71 -261 74 -16 4 -18 0 -12 -31z"/>
<path d="M8557 6926 l-248 -71 -80 -95 c-44 -52 -88 -102 -98 -110 -23 -18
-180 -203 -280 -328 l-74 -93 6 -62 c4 -34 9 -78 13 -97 5 -32 -4 -49 -92
-185 -54 -82 -126 -195 -160 -250 l-63 -100 32 -3 c18 -1 99 1 182 5 l149 8
34 60 c120 211 203 376 243 485 l47 125 129 8 c70 4 165 6 210 5 l83 -3 -111
-117 -111 -118 -76 -1 c-42 0 -98 -4 -124 -7 l-48 -7 -129 -261 -129 -261 -85
-79 -85 -79 16 -65 17 -64 150 -48 c167 -53 165 -53 295 -2 58 23 70 32 107
87 23 34 54 76 67 92 l25 30 1 -42 c0 -24 4 -43 9 -43 5 0 83 32 173 71 89 39
192 84 228 99 195 83 188 78 206 134 9 28 63 166 119 306 56 140 107 269 113
285 17 48 14 13 -7 -77 -11 -46 -47 -205 -81 -355 l-61 -271 41 -219 c39 -210
163 -867 236 -1253 19 -102 38 -202 42 -223 4 -22 11 -40 15 -40 5 -1 118 438
253 975 l244 976 -146 229 c-80 125 -184 287 -231 360 l-84 131 -77 7 c-55 5
-81 12 -92 25 -8 10 -113 133 -233 274 -212 249 -219 258 -213 292 5 25 3 34
-6 33 -7 -1 -125 -33 -261 -73z"/>
<path d="M4149 6113 c60 -56 68 -60 149 -77 46 -9 87 -15 89 -12 3 2 -9 31
-27 64 -36 67 -33 66 -190 77 l-85 6 64 -58z"/>
<path d="M8340 6164 c-8 -1 -40 -6 -71 -9 l-57 -6 -32 -60 c-18 -33 -30 -63
-27 -65 2 -3 43 3 89 12 80 17 89 22 149 76 l64 57 -50 0 c-27 -1 -57 -3 -65
-5z"/>
<path d="M4805 5452 c-16 -16 0 -41 39 -60 45 -23 56 -41 56 -99 0 -46 21 -42
66 13 21 25 48 50 61 55 21 8 62 73 52 83 -7 6 -268 14 -274 8z"/>
<path d="M7568 5453 c-76 -3 -108 -7 -108 -16 0 -21 39 -77 54 -77 8 0 33 -22
56 -50 49 -59 70 -64 70 -17 0 58 11 76 57 99 33 17 43 27 41 42 -3 24 -5 24
-170 19z"/>
<path d="M3580 5373 c0 -4 -36 -192 -79 -418 -44 -225 -103 -531 -131 -680
-28 -148 -64 -337 -80 -420 -15 -82 -36 -193 -45 -245 -9 -52 -18 -100 -20
-107 -7 -22 10 -22 70 2 352 139 1401 558 1404 560 2 2 -106 161 -240 352
-133 191 -267 383 -297 426 l-54 77 -1 122 -2 122 -255 108 c-140 59 -258 108
-262 108 -5 0 -8 -3 -8 -7z"/>
<path d="M8690 5272 l-255 -108 -2 -122 -1 -122 -54 -77 c-30 -43 -164 -235
-297 -426 -134 -191 -242 -350 -240 -352 3 -2 1052 -421 1404 -560 60 -24 77
-24 70 -2 -2 7 -11 55 -20 107 -9 52 -30 163 -45 245 -16 83 -52 272 -80 420
-28 149 -87 455 -131 680 -43 226 -79 414 -79 418 0 4 -3 7 -7 7 -5 0 -123
-49 -263 -108z"/>
<path d="M4685 5040 l-149 -49 -67 19 c-37 10 -70 16 -73 12 -3 -3 -6 -15 -6
-28 0 -17 26 -39 115 -99 l114 -77 91 13 c53 7 99 19 110 28 18 16 80 151 80
175 0 15 -42 56 -56 55 -5 0 -76 -22 -159 -49z"/>
<path d="M7662 5067 c-12 -13 -22 -28 -22 -34 0 -23 62 -159 80 -174 11 -9 57
-21 110 -28 l91 -13 114 77 c89 60 115 82 115 99 0 13 -3 25 -6 28 -3 4 -36
-2 -72 -12 l-67 -19 -154 50 c-85 27 -158 49 -161 49 -4 0 -16 -10 -28 -23z"/>
<path d="M4675 3854 c-1241 -450 -1641 -634 -2057 -947 -60 -44 -106 -82 -104
-85 2 -2 62 14 133 36 70 22 164 52 208 65 125 39 464 122 635 156 602 119
1304 199 1918 218 117 3 211 10 210 14 -2 4 -149 121 -328 260 -436 340 -435
339 -451 338 -8 0 -81 -25 -164 -55z"/>
<path d="M7630 3867 c-388 -300 -706 -551 -708 -556 -1 -4 93 -11 210 -14 614
-19 1316 -99 1918 -218 171 -34 510 -117 635 -156 44 -13 138 -43 208 -65 71
-22 131 -38 133 -36 6 7 -198 158 -311 230 -356 230 -814 429 -1790 779 -121
44 -224 79 -230 79 -5 0 -35 -19 -65 -43z"/>
</g>
</svg>
