<svg xmlns="http://www.w3.org/2000/svg" width="1000" height="1280" viewBox="0 0 1000 1280">
<g transform="translate(50.0,30) scale(0.7177033492822966)">
<metadata>
Created by potrace 1.16, written by Peter Selinger 2001-2019
</metadata>
<g transform="translate(0.000000,1254.000000) scale(0.100000,-0.100000)"
fill="#D40309" stroke="none">
<path d="M6187 10917 c-44 -111 -184 -485 -313 -832 -129 -346 -315 -846 -414
-1110 -98 -264 -236 -633 -305 -820 -70 -187 -179 -479 -242 -650 -64 -170
-116 -314 -116 -320 0 -5 47 -118 105 -250 58 -132 163 -375 233 -540 70 -165
131 -303 135 -308 3 -4 48 104 100 240 92 247 497 1313 758 1996 74 196 139
357 142 357 3 0 68 -161 142 -357 261 -683 666 -1749 758 -1996 52 -136 97
-244 100 -240 4 5 65 143 135 308 70 165 175 408 233 540 58 132 105 245 105
250 0 6 -52 150 -116 320 -63 171 -172 463 -242 650 -69 187 -207 556 -305
820 -99 264 -285 764 -414 1110 -258 695 -388 1035 -396 1035 -3 0 -40 -91
-83 -203z"/>
<path d="M730 9237 c0 -23 342 -888 590 -1492 46 -112 594 -1469 673 -1667 6
-16 14 -28 18 -28 3 0 88 123 188 274 l182 273 -114 204 -114 204 -6 195 -5
195 220 166 220 166 122 -65 c66 -35 177 -95 246 -133 l125 -68 81 -108 82
-108 378 -123 c358 -117 381 -126 412 -160 19 -20 141 -170 271 -332 l238
-296 -6 -148 -6 -148 89 -151 c128 -218 346 -598 346 -602 0 -2 -48 -109 -107
-237 -59 -128 -150 -327 -202 -442 l-96 -210 -135 -28 c-74 -15 -142 -28 -151
-28 -13 0 -131 125 -232 246 l-26 30 62 -15 c50 -13 77 -28 137 -79 84 -70 79
-69 219 -33 l64 16 38 100 c21 55 39 105 39 111 0 6 -11 20 -24 33 l-23 22
-154 -59 c-85 -33 -175 -67 -201 -77 l-48 -18 -170 111 c-104 68 -172 107
-175 99 -2 -6 -6 -62 -9 -124 l-5 -111 62 -69 c72 -78 557 -617 698 -774 363
-407 511 -574 634 -713 77 -88 194 -221 260 -296 601 -684 823 -936 838 -954
l17 -21 18 21 c14 18 236 270 837 954 66 75 183 208 260 296 123 139 271 306
634 713 141 157 626 696 698 774 l62 69 -5 111 c-3 62 -7 118 -9 124 -3 8 -71
-31 -175 -99 l-170 -111 -48 18 c-26 10 -116 44 -201 77 l-154 59 -23 -22
c-13 -13 -24 -27 -24 -33 0 -6 18 -56 39 -111 l38 -100 64 -16 c140 -36 135
-37 219 33 60 51 87 66 137 79 l62 15 -26 -30 c-101 -121 -219 -246 -232 -246
-9 0 -77 13 -151 28 l-135 28 -96 210 c-52 115 -143 314 -202 442 -59 128
-107 235 -107 237 0 4 218 384 346 602 l89 151 -6 148 -6 148 238 296 c130
162 252 312 271 332 31 34 54 43 412 160 l378 123 82 108 81 108 125 68 c69
38 180 98 246 133 l122 65 220 -166 220 -166 -5 -195 -6 -195 -114 -204 -114
-204 182 -273 c100 -151 185 -274 188 -274 4 0 12 12 18 28 84 211 627 1556
673 1667 262 637 594 1480 588 1494 -1 6 -97 -40 -213 -101 -311 -164 -1358
-719 -1685 -893 -157 -84 -454 -241 -660 -350 -527 -278 -1021 -551 -1046
-578 -6 -7 -40 -79 -76 -162 -293 -667 -547 -1245 -603 -1370 -280 -628 -888
-2031 -1205 -2782 -24 -57 -46 -103 -50 -103 -4 0 -26 46 -50 103 -317 751
-925 2154 -1205 2782 -56 125 -310 703 -603 1370 -36 83 -70 155 -76 162 -23
25 -514 297 -961 533 -159 84 -461 244 -670 355 -934 497 -1616 859 -1957
1037 -13 6 -18 5 -18 -5z"/>
<path d="M2443 7437 l-152 -112 0 -134 -1 -134 133 -223 c72 -123 135 -224
138 -224 10 0 549 531 549 542 0 5 -34 54 -77 109 l-76 99 -177 95 c-97 52
-179 95 -181 95 -2 0 -72 -51 -156 -113z"/>
<path d="M9759 7455 l-176 -95 -77 -99 c-42 -55 -76 -104 -76 -109 0 -11 539
-542 549 -542 3 0 66 101 139 224 l132 223 -1 134 0 134 -150 110 c-82 61
-153 111 -157 112 -4 2 -86 -40 -183 -92z"/>
<path d="M3135 7004 c-106 -93 -267 -234 -496 -434 -108 -94 -110 -98 -330
-424 -187 -280 -220 -333 -215 -357 5 -25 743 -1879 752 -1888 2 -2 6 -2 8 0
2 2 11 175 20 384 9 209 21 488 28 620 l11 240 -88 355 c-101 410 -161 647
-171 675 -18 51 17 -9 64 -110 28 -60 120 -256 205 -435 148 -313 156 -326
193 -345 55 -27 524 -245 552 -256 20 -8 25 -4 40 30 l17 39 70 -103 70 -103
130 -69 130 -70 178 73 c99 40 180 74 182 76 2 2 7 37 13 78 l10 75 -36 30
c-20 17 -75 62 -122 101 l-85 71 -130 314 -130 314 -153 21 -153 22 -153 148
c-83 82 -151 150 -150 152 1 3 503 -65 544 -74 21 -4 35 -28 96 -167 39 -89
120 -269 180 -399 l109 -238 218 0 c119 0 217 2 217 5 0 3 -83 151 -185 328
l-184 324 5 134 5 134 -245 295 -245 295 -328 117 c-181 64 -330 117 -333 117
-3 1 -55 -42 -115 -95z"/>
<path d="M8957 6982 l-328 -117 -245 -295 -245 -295 5 -134 5 -134 -184 -324
c-102 -177 -185 -325 -185 -328 0 -3 98 -5 218 -5 l217 0 109 238 c60 130 141
310 180 399 61 139 75 163 96 167 41 9 543 77 544 74 1 -2 -67 -70 -150 -152
l-153 -148 -153 -22 -153 -21 -130 -314 -130 -314 -85 -71 c-47 -39 -102 -84
-122 -101 l-36 -30 10 -75 c6 -41 11 -76 13 -78 2 -2 83 -36 182 -76 l178 -73
130 70 130 69 70 103 70 103 17 -39 c15 -34 20 -38 40 -30 28 11 497 229 552
256 37 19 45 32 193 345 85 179 177 375 205 435 47 101 82 161 64 110 -10 -28
-70 -265 -171 -675 l-88 -355 11 -240 c7 -132 19 -411 28 -620 9 -209 18 -382
20 -384 2 -2 6 -2 8 0 9 9 747 1863 752 1888 5 24 -28 77 -215 357 -220 326
-222 330 -330 424 -229 200 -390 341 -496 434 -60 53 -112 96 -115 95 -3 0
-152 -53 -333 -117z"/>
<path d="M3708 6057 c49 -49 63 -57 155 -86 56 -17 105 -31 109 -31 5 0 -34
75 -66 127 -1 1 -44 9 -96 17 -52 9 -108 18 -125 21 -29 5 -28 4 23 -48z"/>
<path d="M8751 6089 c-63 -11 -115 -20 -116 -22 -20 -27 -72 -127 -67 -127 4
0 53 14 109 31 92 29 106 37 154 85 30 30 49 54 44 53 -6 0 -61 -10 -124 -20z"/>
<path d="M4465 5230 c-2 -3 26 -27 61 -55 36 -28 67 -60 69 -72 17 -83 14 -77
37 -57 31 28 148 166 148 175 0 9 -310 17 -315 9z"/>
<path d="M7913 5232 c-84 -1 -153 -6 -153 -11 0 -9 116 -146 148 -175 21 -18
21 -18 27 10 12 60 22 74 83 123 34 27 59 51 55 53 -4 2 -77 2 -160 0z"/>
<path d="M3090 4231 l0 -849 -258 -358 c-142 -198 -330 -458 -418 -579 -249
-343 -273 -377 -246 -362 10 7 613 202 967 314 624 196 953 296 1350 408 225
64 415 119 421 123 14 8 7 17 -415 513 -157 184 -357 421 -445 528 -89 106
-227 273 -308 369 l-147 176 7 125 c4 69 7 146 7 170 l0 45 -250 112 c-137 62
-253 113 -257 113 -5 1 -8 -381 -8 -848z"/>
<path d="M9185 4966 l-250 -112 0 -45 c0 -24 3 -101 7 -170 l7 -125 -147 -176
c-81 -96 -219 -263 -308 -369 -88 -107 -288 -344 -445 -528 -422 -496 -429
-505 -415 -513 6 -4 196 -59 421 -123 397 -112 726 -212 1350 -408 354 -112
957 -307 968 -314 26 -15 2 19 -247 362 -88 121 -276 381 -418 579 l-258 358
0 849 c0 467 -3 849 -7 848 -5 0 -120 -51 -258 -113z"/>
</g>
</g>
<text x="500.0" y="1010" text-anchor="middle" font-family="Michroma" font-size="82" fill="white" letter-spacing="13">RED CROWN</text>
<text x="500.0" y="1100" text-anchor="middle" font-family="Michroma" font-size="38" fill="#D40309" letter-spacing="27">INTERACTIVE</text>
</svg>