<svg xmlns="http://www.w3.org/2000/svg" viewBox="0 0 900 700" width="900" height="700" role="img" aria-label="איור: צוות המשרד סוגר עסקה עם משפחה"><defs><linearGradient id="wall" x1="0" y1="0" x2="0" y2="1"><stop offset="0" stop-color="#EFECF8"/><stop offset="1" stop-color="#FBF8F1"/></linearGradient><linearGradient id="sky" x1="0" y1="0" x2="0" y2="1"><stop offset="0" stop-color="#BBDCF5"/><stop offset="1" stop-color="#E8F3FB"/></linearGradient><linearGradient id="desk" x1="0" y1="0" x2="0" y2="1"><stop offset="0" stop-color="#3A21A8"/><stop offset="1" stop-color="#1A006D"/></linearGradient></defs><rect width="900" height="700" fill="url(#wall)"/><rect y="550" width="900" height="150" fill="#E4DFF2"/><rect x="60" y="70" width="250" height="220" rx="12" fill="url(#sky)" stroke="#FFFFFF" stroke-width="10"/><path d="M60 230h250v48a12 12 0 0 1-12 12H72a12 12 0 0 1-12-12Z" fill="#7FC2E8" opacity=".85"/><path d="M60 214c40-26 70 6 108-12s72 10 142-16v44H60Z" fill="#3E7A52" opacity=".55"/><circle cx="252" cy="126" r="26" fill="#FED700" opacity=".8"/><rect x="178" y="70" width="10" height="220" fill="#FFFFFF"/><rect x="640" y="90" width="190" height="130" rx="10" fill="#FFFFFF" stroke="#1A006D" stroke-opacity=".18" stroke-width="6"/><path d="M700 186l34-40 30 34 22-22 22 28H700Z" fill="#FED700" opacity=".75"/><circle cx="704" cy="126" r="13" fill="#E9C200"/><path d="M92 556c-10-56 6-96 34-118 6 44-4 84-34 118Z" fill="#2F6B45" opacity=".8"/><path d="M92 556c-30-42-34-84-20-116 30 26 40 70 20 116Z" fill="#3E8A57" opacity=".85"/><path d="M62 556h60l-8 62a10 10 0 0 1-10 9H80a10 10 0 0 1-10-9Z" fill="#E9C200"/><path d="M546.0 512v-134a26 26 0 0 1 26-26h56a26 26 0 0 1 26 26v134Z" fill="#4C6FB5"/><circle cx="600" cy="318" r="38" fill="#E8B58C"/><path d="M562 318a38 38 0 0 1 76 0Z" fill="#6B4A2E"/><path d="M562 318q7.6000000000000005 12.920000000000002 5.32 19.0" fill="none" stroke="#6B4A2E" stroke-width="8.36" stroke-linecap="round"/><circle cx="588.6" cy="319" r="3.2300000000000004" fill="#2B2118"/><circle cx="611.4" cy="319" r="3.2300000000000004" fill="#2B2118"/><path d="M583.28 330.92q16.72 15.959999999999999 33.44 0" fill="none" stroke="#2B2118" stroke-width="2.85" stroke-linecap="round"/><circle cx="578.34" cy="329.4" r="4.18" fill="#E98A86" opacity=".55"/><circle cx="621.66" cy="329.4" r="4.18" fill="#E98A86" opacity=".55"/><path d="M656.0 516v-124a26 26 0 0 1 26-26h48a26 26 0 0 1 26 26v124Z" fill="#C2708F"/><circle cx="706" cy="334" r="35" fill="#F5D5B8"/><path d="M671 334a35 35 0 0 1 70 0Z" fill="#3B2A1E"/><path d="M671 334q5.6000000000000005 17.5 3.5 28.0" fill="none" stroke="#3B2A1E" stroke-width="9.1" stroke-linecap="round"/><path d="M741 334q-5.6000000000000005 17.5 -3.5 28.0" fill="none" stroke="#3B2A1E" stroke-width="9.1" stroke-linecap="round"/><circle cx="706" cy="293" r="13.3" fill="#3B2A1E"/><circle cx="695.5" cy="335" r="2.975" fill="#2B2118"/><circle cx="716.5" cy="335" r="2.975" fill="#2B2118"/><path d="M690.6 345.9q15.4 14.7 30.8 0" fill="none" stroke="#2B2118" stroke-width="2.625" stroke-linecap="round"/><circle cx="686.05" cy="344.5" r="3.85" fill="#E98A86" opacity=".55"/><circle cx="725.95" cy="344.5" r="3.85" fill="#E98A86" opacity=".55"/><path d="M749.0 512v-84a26 26 0 0 1 26-26h22a26 26 0 0 1 26 26v84Z" fill="#E8A13F"/><circle cx="786" cy="380" r="26" fill="#F7DCC4"/><path d="M760 380a26 26 0 0 1 52 0Z" fill="#2E2118"/><circle cx="771.7" cy="361.28" r="7.8" fill="#2E2118"/><circle cx="800.3" cy="361.28" r="7.8" fill="#2E2118"/><circle cx="778.2" cy="381" r="2.21" fill="#2B2118"/><circle cx="793.8" cy="381" r="2.21" fill="#2B2118"/><path d="M774.56 388.84q11.44 10.92 22.88 0" fill="none" stroke="#2B2118" stroke-width="2.0" stroke-linecap="round"/><circle cx="771.18" cy="387.8" r="2.86" fill="#E98A86" opacity=".55"/><circle cx="800.82" cy="387.8" r="2.86" fill="#E98A86" opacity=".55"/><path d="M176.0 516v-142a26 26 0 0 1 26-26h60a26 26 0 0 1 26 26v142Z" fill="#1A006D"/><circle cx="232" cy="312" r="39" fill="#F2C9A8"/><path d="M193 312a39 39 0 0 1 78 0Z" fill="#241B14"/><path d="M193 312q6.24 19.5 3.9000000000000004 31.200000000000003" fill="none" stroke="#241B14" stroke-width="10.14" stroke-linecap="round"/><path d="M271 312q-6.24 19.5 -3.9000000000000004 31.200000000000003" fill="none" stroke="#241B14" stroke-width="10.14" stroke-linecap="round"/><circle cx="232" cy="267" r="14.82" fill="#241B14"/><circle cx="220.3" cy="313" r="3.3150000000000004" fill="#2B2118"/><circle cx="243.7" cy="313" r="3.3150000000000004" fill="#2B2118"/><path d="M214.84 325.26q17.16 16.38 34.32 0" fill="none" stroke="#2B2118" stroke-width="2.925" stroke-linecap="round"/><circle cx="209.77" cy="323.7" r="4.29" fill="#E98A86" opacity=".55"/><circle cx="254.23" cy="323.7" r="4.29" fill="#E98A86" opacity=".55"/><path d="M198 348l34 26 34-26" fill="none" stroke="#FED700" stroke-width="8" stroke-linejoin="round"/><path d="M294.0 516v-124a26 26 0 0 1 26-26h48a26 26 0 0 1 26 26v124Z" fill="#3A21A8"/><circle cx="344" cy="334" r="35" fill="#DDA079"/><path d="M309 334a35 35 0 0 1 70 0Z" fill="#4A3320"/><path d="M309 334q7.0 11.9 4.9 17.5" fill="none" stroke="#4A3320" stroke-width="7.7" stroke-linecap="round"/><circle cx="333.5" cy="335" r="2.975" fill="#2B2118"/><circle cx="354.5" cy="335" r="2.975" fill="#2B2118"/><path d="M328.6 345.9q15.4 14.7 30.8 0" fill="none" stroke="#2B2118" stroke-width="2.625" stroke-linecap="round"/><circle cx="324.05" cy="344.5" r="3.85" fill="#E98A86" opacity=".55"/><circle cx="363.95" cy="344.5" r="3.85" fill="#E98A86" opacity=".55"/><path d="M316 366l28 22 28-22" fill="none" stroke="#FED700" stroke-width="7" stroke-linejoin="round"/><rect x="120" y="470" width="660" height="26" rx="13" fill="url(#desk)"/><rect x="150" y="496" width="26" height="120" rx="8" fill="#1A006D" opacity=".9"/><rect x="724" y="496" width="26" height="120" rx="8" fill="#1A006D" opacity=".9"/><rect x="372" y="426" width="150" height="46" rx="6" fill="#FFFFFF" stroke="#1A006D" stroke-opacity=".2" stroke-width="3"/><path d="M392 440h94M392 452h70" stroke="#1A006D" stroke-opacity=".28" stroke-width="5" stroke-linecap="round"/><circle cx="500" cy="462" r="13" fill="#FED700"/><path d="M286 392q78 -34 150 6" fill="none" stroke="#F2C9A8" stroke-width="15" stroke-linecap="round"/><path d="M654 392q-78 -34 -150 6" fill="none" stroke="#E8B58C" stroke-width="15" stroke-linecap="round"/><circle cx="470" cy="400" r="27" fill="#F2C9A8"/><circle cx="470" cy="400" r="27" fill="#1A006D" opacity=".06"/><path d="M446 404q24 18 48 0" fill="none" stroke="#E8B58C" stroke-width="17" stroke-linecap="round"/><path d="M430 287l3.06 5.94 5.94 3.06-5.94 3.06-3.06 5.94-3.06-5.94-5.94-3.06 5.94-3.06Z" fill="#FED700" opacity=".85"/><path d="M556 261l2.3800000000000003 4.62 4.62 2.3800000000000003-4.62 2.3800000000000003-2.3800000000000003 4.62-2.3800000000000003-4.62-4.62-2.3800000000000003 4.62-2.3800000000000003Z" fill="#FED700" opacity=".85"/><path d="M392 240l2.04 3.96 3.96 2.04-3.96 2.04-2.04 3.96-2.04-3.96-3.96-2.04 3.96-2.04Z" fill="#FED700" opacity=".85"/></svg>