<svg xmlns="http://www.w3.org/2000/svg" viewBox="0 0 1600 1067" width="1600" height="1067" role="img"><defs><linearGradient id="sky2a" x1="0" y1="0" x2="0" y2="1"><stop offset="0" stop-color="#EDF1EF"/><stop offset="1" stop-color="#DCE5E0"/></linearGradient><linearGradient id="win2a" x1="0" y1="0" x2=".4" y2="1"><stop offset="0" stop-color="#22322C" stop-opacity=".55"/><stop offset="1" stop-color="#22322C" stop-opacity=".30"/></linearGradient><linearGradient id="glow2a" x1="0" y1="1" x2=".8" y2="0"><stop offset="0" stop-color="#A8803C" stop-opacity=".22"/><stop offset="1" stop-color="#A8803C" stop-opacity="0"/></linearGradient></defs><rect width="1600" height="1067" fill="#FAFAF8"/><rect x="0" y="0" width="1600" height="742" fill="#E3E9E4" opacity=".5"/><rect x="150" y="96" width="820" height="628" fill="url(#sky2a)"/><rect x="150" y="470" width="820" height="254" fill="#22322C" opacity=".10"/><rect x="150" y="96" width="12" height="628" fill="#FAFAF8"/><rect x="423" y="96" width="12" height="628" fill="#FAFAF8"/><rect x="696" y="96" width="12" height="628" fill="#FAFAF8"/><rect x="969" y="96" width="12" height="628" fill="#FAFAF8"/><rect x="150" y="96" width="820" height="12" fill="#FAFAF8"/><rect x="150" y="386" width="820" height="10" fill="#FAFAF8"/><rect x="144" y="90" width="832" height="640" fill="none" stroke="#22322C" stroke-opacity=".22" stroke-width="6"/><rect x="0" y="742" width="1600" height="325" fill="#E3E9E4"/><rect x="0" y="760" width="1600" height="2" fill="#22322C" opacity=".07"/><rect x="0" y="800" width="1600" height="2" fill="#22322C" opacity=".07"/><rect x="0" y="840" width="1600" height="2" fill="#22322C" opacity=".07"/><rect x="0" y="880" width="1600" height="2" fill="#22322C" opacity=".07"/><rect x="0" y="920" width="1600" height="2" fill="#22322C" opacity=".07"/><rect x="0" y="960" width="1600" height="2" fill="#22322C" opacity=".07"/><rect x="0" y="1000" width="1600" height="2" fill="#22322C" opacity=".07"/><rect x="0" y="1040" width="1600" height="2" fill="#22322C" opacity=".07"/><rect x="250" y="800" width="900" height="220" rx="10" fill="#A8803C" opacity=".16"/><rect x="1040" y="548" width="430" height="190" rx="24" fill="#22322C" opacity=".62"/><rect x="1066" y="506" width="378" height="66" rx="20" fill="#22322C" opacity=".44"/><rect x="1086" y="560" width="150" height="80" rx="14" fill="#A8803C" opacity=".45"/><rect x="360" y="790" width="330" height="16" rx="8" fill="#22322C" opacity=".55"/><rect x="390" y="806" width="14" height="110" fill="#22322C" opacity=".4"/><rect x="646" y="806" width="14" height="110" fill="#22322C" opacity=".4"/><circle cx="1352" cy="286" r="74" fill="#A8803C" opacity=".42"/><rect x="1345" y="286" width="14" height="250" fill="#22322C" opacity=".35"/><rect x="1080" y="150" width="180" height="230" fill="#FAFAF8" stroke="#A8803C" stroke-width="5"/><rect width="1600" height="1067" fill="url(#glow2a)"/></svg>